# xmcd
#
# Track frame offsets: 
#        150
#        19513
#        20535
#        37669
#        59429
#        62455
#        75080
#        91525
#        110834
#        113549
#        128151
#        144339
#        165864
#        169775
#        188855
#        202589
#        218386
#        219152
#        231507
#        242744
#        259730
#        263506
#        275258
#        293236
#        311616
#
# Disc length: 4446 seconds
#
# Revision: 0
# Processed by: cddbd v1.5.2PL0 Copyright (c) Steve Scherf et al.
# Submitted via: ExactAudioCopy v1.5
#
DISCID=38115c19
DTITLE=Various Artist - Country Roads Edition Collector
DYEAR=1900
DGENRE=
TTITLE0=Travis Tritt - Put Some Drive in Your Country
TTITLE1=[unknown] - The Big Cactus Country #1
TTITLE2=Confederate Railroad - I Am Just a Rebel
TTITLE3=Big and Rich - Rollin
TTITLE4=[unknown] - Nashville's Country Legend 650AM WSM
TTITLE5=Trick Pony - Pour Me
TTITLE6=Linda Ronstadt - Poor, Poor Pitiful Me
TTITLE7=Little Texas - Peaceful Easy Feeling
TTITLE8=[unknown] - On the Road Again
TTITLE9=Jo Dee Messina - I'm Alright
TTITLE10=Wynonna - What the World Needs
TTITLE11=Ray Scott - Gypsy
TTITLE12=[unknown] - 99.5 WYCD Detroit's N81 for Country and Fun
TTITLE13=Hal Ketchum - Mama Knows the Highway
TTITLE14=Highway 101 - Whiskey, If You Were a Woman
TTITLE15=Randy Travis - Forever and Ever, Amen
TTITLE16=[unknown] - The Big Cactus Country #2
TTITLE17=Tracy Lawrence - My Second Home
TTITLE18=John Anderson - Let Somebody Else Drive
TTITLE19=Dwight Yoakam - I Sang Dixie
TTITLE20=[unknown] - FM 106.1 Continuous Country Favorites
TTITLE21=Junior Brown - Highway Patrol
TTITLE22=Dolly Parton, Linda Ronstadt and Emmylou Harris - Those Memorie
TTITLE22=s of You
TTITLE23=Willie Nelson - Whiskey River
TTITLE24=Steve and Heather - Bonnie and Clyde
EXTD=
EXTT0=
EXTT1=
EXTT2=
EXTT3=
EXTT4=
EXTT5=
EXTT6=
EXTT7=
EXTT8=
EXTT9=
EXTT10=
EXTT11=
EXTT12=
EXTT13=
EXTT14=
EXTT15=
EXTT16=
EXTT17=
EXTT18=
EXTT19=
EXTT20=
EXTT21=
EXTT22=
EXTT23=
EXTT24=
PLAYORDER=
